<mxfile host="app.diagrams.net" modified="2024-01-28T08:09:47.567Z" agent="Mozilla/5.0 (Windows NT 10.0; Win64; x64; rv:122.0) Gecko/20100101 Firefox/122.0" version="23.0.2" etag="jFoUSPfSAn_yy6MYR67u" type="github">
  <diagram name="Page-1" id="A40HC2OPqREIMZFWe9Pl">
    <mxGraphModel>
      <root>
        <mxCell id="0" />
        <mxCell id="1" parent="0" />
      </root>
    </mxGraphModel>
  </diagram>
</mxfile>
